<svg xmlns="http://www.w3.org/2000/svg" width="83.945" height="71.44" viewBox="0 0 83.945 71.44"><g id="Group_118" data-name="Group 118" transform="translate(-286.536 -1079.38)"><path id="Path_331" data-name="Path 331" d="M343.1,1089.5a32.736,32.736,0,1,0,8.843,16.1" fill="none" stroke="#222b39" stroke-linecap="round" stroke-miterlimit="10" stroke-width="1"></path><path id="Path_332" data-name="Path 332" d="M323.215,1089.989a26.1,26.1,0,0,0-26.07,26.069" transform="translate(-3.34 -3.34)" fill="none" stroke="#222b39" stroke-linecap="round" stroke-miterlimit="10" stroke-width="1"></path><path id="Path_333" data-name="Path 333" d="M339.868,1106.135a18.739,18.739,0,1,0,5.326,9.611" transform="translate(-6.929 -6.929)" fill="none" stroke="#222b39" stroke-linecap="round" stroke-miterlimit="10" stroke-width="1"></path><line id="Line_37" data-name="Line 37" x1="5.904" y2="9.408" transform="translate(296.398 1140.723)" fill="none" stroke="#222b39" stroke-linecap="round" stroke-miterlimit="10" stroke-width="1"></line><line id="Line_38" data-name="Line 38" x2="5.904" y2="9.408" transform="translate(337.448 1140.723)" fill="none" stroke="#222b39" stroke-linecap="round" stroke-miterlimit="10" stroke-width="1"></line><line id="Line_39" data-name="Line 39" y1="15.782" x2="28.733" transform="translate(319.875 1096.937)" fill="none" stroke="#133b83" stroke-linecap="round" stroke-miterlimit="10" stroke-width="1"></line><path id="Path_334" data-name="Path 334" d="M387.2,1103.485l-8.212-2.185,2.185-8.212" transform="translate(-30.381 -4.364)" fill="none" stroke="#133b83" stroke-linecap="round" stroke-miterlimit="10" stroke-width="1"></path><path id="Path_335" data-name="Path 335" d="M396.945,1097.947l-8.212-2.185,2.184-8.212" transform="translate(-33.601 -2.534)" fill="none" stroke="#133b83" stroke-linecap="round" stroke-miterlimit="10" stroke-width="1"></path><path id="Path_336" data-name="Path 336" d="M406.689,1092.408l-8.212-2.184,2.184-8.212" transform="translate(-36.82 -0.704)" fill="none" stroke="#133b83" stroke-linecap="round" stroke-miterlimit="10" stroke-width="1"></path><path id="Path_337" data-name="Path 337" d="M337.18,1119.221l-1.482,6.573,6.772,1.975" transform="translate(-16.078 -12.998)" fill="none" stroke="#133b83" stroke-linecap="round" stroke-miterlimit="10" stroke-width="1"></path></g></svg>