<svg xmlns="http://www.w3.org/2000/svg" width="55.817" height="70.753" viewBox="0 0 55.817 70.753"><g id="Group_834" data-name="Group 834" transform="translate(-840.917 -1069.624)"><g id="Group_833" data-name="Group 833" transform="translate(850.522 1079.604)"><path id="Path_625" data-name="Path 625" d="M893.9,1105.02a18.3,18.3,0,1,0-31.346,12.833,10.929,10.929,0,0,1,3.234,7.648v.065h19.619v-.068a10.526,10.526,0,0,1,3.074-7.486A18.233,18.233,0,0,0,893.9,1105.02Z" transform="translate(-857.297 -1086.718)" fill="none" stroke="#222b39" stroke-linecap="round" stroke-miterlimit="10" stroke-width="1"></path><path id="Path_626" data-name="Path 626" d="M867.825,1108.251a12.607,12.607,0,0,1,11.624-11.464c.3-.021.6-.031.9-.031a12.518,12.518,0,0,1,8.3,3.133" transform="translate(-861.811 -1091.022)" fill="none" stroke="#222b39" stroke-linecap="round" stroke-miterlimit="10" stroke-width="1"></path><line id="Line_70" data-name="Line 70" x2="19.852" transform="translate(8.377 42.707)" fill="none" stroke="#222b39" stroke-linecap="round" stroke-miterlimit="10" stroke-width="1"></line><path id="Rectangle_254" data-name="Rectangle 254" d="M0,0H19.852a0,0,0,0,1,0,0V0a9.5,9.5,0,0,1-9.5,9.5H9.5A9.5,9.5,0,0,1,0,0V0A0,0,0,0,1,0,0Z" transform="translate(8.377 46.642)" fill="none" stroke="#222b39" stroke-linecap="round" stroke-miterlimit="10" stroke-width="1"></path><path id="Path_627" data-name="Path 627" d="M884.2,1185.282v1.032a2.934,2.934,0,0,0,2.934,2.934h0a2.934,2.934,0,0,0,2.934-2.934v-1.041" transform="translate(-868.832 -1128.974)" fill="none" stroke="#222b39" stroke-linecap="round" stroke-miterlimit="10" stroke-width="1"></path></g><line id="Line_71" data-name="Line 71" y1="4.728" transform="translate(868.825 1070.124)" fill="none" stroke="#133b83" stroke-linecap="round" stroke-miterlimit="10" stroke-width="1"></line><line id="Line_72" data-name="Line 72" x1="1.617" y1="4.443" transform="translate(859.333 1071.798)" fill="none" stroke="#133b83" stroke-linecap="round" stroke-miterlimit="10" stroke-width="1"></line><line id="Line_73" data-name="Line 73" x1="3.039" y1="3.622" transform="translate(850.987 1076.617)" fill="none" stroke="#133b83" stroke-linecap="round" stroke-miterlimit="10" stroke-width="1"></line><line id="Line_74" data-name="Line 74" x1="4.095" y1="2.364" transform="translate(844.792 1084)" fill="none" stroke="#133b83" stroke-linecap="round" stroke-miterlimit="10" stroke-width="1"></line><line id="Line_75" data-name="Line 75" x1="4.656" y1="0.821" transform="translate(841.495 1093.056)" fill="none" stroke="#133b83" stroke-linecap="round" stroke-miterlimit="10" stroke-width="1"></line><line id="Line_76" data-name="Line 76" x1="4.656" y2="0.821" transform="translate(841.495 1101.873)" fill="none" stroke="#133b83" stroke-linecap="round" stroke-miterlimit="10" stroke-width="1"></line><line id="Line_77" data-name="Line 77" x2="4.657" y2="0.821" transform="translate(891.497 1101.873)" fill="none" stroke="#133b83" stroke-linecap="round" stroke-miterlimit="10" stroke-width="1"></line><line id="Line_78" data-name="Line 78" y1="0.821" x2="4.657" transform="translate(891.497 1093.056)" fill="none" stroke="#133b83" stroke-linecap="round" stroke-miterlimit="10" stroke-width="1"></line><line id="Line_79" data-name="Line 79" y1="2.364" x2="4.095" transform="translate(888.763 1084)" fill="none" stroke="#133b83" stroke-linecap="round" stroke-miterlimit="10" stroke-width="1"></line><line id="Line_80" data-name="Line 80" y1="3.622" x2="3.039" transform="translate(883.623 1076.617)" fill="none" stroke="#133b83" stroke-linecap="round" stroke-miterlimit="10" stroke-width="1"></line><line id="Line_81" data-name="Line 81" y1="4.443" x2="1.617" transform="translate(876.699 1071.798)" fill="none" stroke="#133b83" stroke-linecap="round" stroke-miterlimit="10" stroke-width="1"></line></g></svg>