<svg xmlns="http://www.w3.org/2000/svg" width="63.604" height="66.504" viewBox="0 0 63.604 66.504"><g id="Group_843" data-name="Group 843" transform="translate(-8470.5 -3116.227)"><g id="Group_842" data-name="Group 842" transform="translate(8671.016 2046.102)"><g id="Group_840" data-name="Group 840" transform="translate(-200.016 1088.831)"><path id="Path_632" data-name="Path 632" d="M-120.308,1132.322a7.825,7.825,0,0,0-2.94-1.428l-8.735-2.536a1.923,1.923,0,0,1-.533-.25,1.9,1.9,0,0,1-.826-1.357l-.4-3.456a14.9,14.9,0,0,0,5.124-8.053c1.559-.138,2.757-1.873,2.757-4.061,0-2.022-1.016-3.658-2.407-4.007" transform="translate(166.757 -1107.174)" fill="none" stroke="#222b39" stroke-linecap="round" stroke-linejoin="round" stroke-width="1"></path><path id="Path_633" data-name="Path 633" d="M-186.18,1107.218c-1.352.385-2.332,2-2.332,3.985,0,2.186,1.191,3.919,2.748,4.061a14.969,14.969,0,0,0,5.126,8.053l-.4,3.456a1.9,1.9,0,0,1-.826,1.358,1.913,1.913,0,0,1-.532.25l-8.705,2.527a8.244,8.244,0,0,0-3.414,1.786,10.054,10.054,0,0,0-3.457,5.778l-2.043,16.023h44.039" transform="translate(200.016 -1107.196)" fill="none" stroke="#222b39" stroke-linecap="round" stroke-linejoin="round" stroke-width="1"></path></g><path id="Path_634" data-name="Path 634" d="M-170.762,1092.119c-1.841,2.7-1.5,7.521-1.5,7.521" transform="translate(-13.915 -10.787)" fill="none" stroke="#222b39" stroke-linecap="round" stroke-linejoin="round" stroke-width="1"></path><path id="Path_635" data-name="Path 635" d="M-123.552,1101.265a19.484,19.484,0,0,0-.789-5.864" transform="translate(-37.979 -12.434)" fill="none" stroke="#222b39" stroke-linecap="round" stroke-linejoin="round" stroke-width="1"></path><path id="Path_636" data-name="Path 636" d="M-147.479,1144.851l-7.125,6.38-7.125-6.38" transform="translate(-19.216 -37.252)" fill="none" stroke="#222b39" stroke-linecap="round" stroke-linejoin="round" stroke-width="1"></path><path id="Path_637" data-name="Path 637" d="M-169.224,1081.332c.048-5.474,4.664-8.6,8.977-9.166a31.619,31.619,0,0,0,7.033-1.541l.022.034a1.853,1.853,0,0,1,.146,1.689h0a10.147,10.147,0,0,0,6.976-.555c.026,1.589.072,4.788-.568,6.243a5.628,5.628,0,0,1-3.343,3.193,7.2,7.2,0,0,1-3.04.117c-2.039-.27-4.018-.877-6.038-1.266a12.7,12.7,0,0,0-6.109.049" transform="translate(-15.454)" fill="none" stroke="#222b39" stroke-linecap="round" stroke-linejoin="round" stroke-width="1"></path><circle id="Ellipse_25" data-name="Ellipse 25" cx="10.21" cy="10.21" r="10.21" transform="translate(-157.832 1115.709)" fill="none" stroke="#133b83" stroke-linecap="round" stroke-linejoin="round" stroke-width="1"></circle><g id="Group_841" data-name="Group 841" transform="translate(-152 1122.656)"><path id="Path_638" data-name="Path 638" d="M-103.623,1178.874l3.49,3.112,5.648-6.908" transform="translate(103.623 -1175.078)" fill="none" stroke="#133b83" stroke-linecap="round" stroke-linejoin="round" stroke-width="1"></path></g></g></g></svg>