<svg xmlns="http://www.w3.org/2000/svg" width="79.86" height="69.481" viewBox="0 0 79.86 69.481"><g id="Group_850" data-name="Group 850" transform="translate(-181.935 -3335.967)"><g id="Group_849" data-name="Group 849" transform="translate(182.435 3348.266)"><g id="Group_846" data-name="Group 846" transform="translate(0 0)"><g id="Group_845" data-name="Group 845"><g id="Group_844" data-name="Group 844"><path id="Path_639" data-name="Path 639" d="M230.333,3408.376l-1.365-4.822a15.508,15.508,0,0,0-8.4-9.848l-3.385-1.57a7.572,7.572,0,0,1-4.1-4.8l-1.638-5.778.129-.972a4.978,4.978,0,0,0-2.313-4.888l-.084-.052" transform="translate(-194.139 -3365.366)" fill="none" stroke="#222b39" stroke-linecap="round" stroke-linejoin="round" stroke-width="1"></path><path id="Path_640" data-name="Path 640" d="M201.966,3410.5c-.242.033-.479.06-.713.08a11.618,11.618,0,0,1-10.095-4.516c-4.952-6.341-8.723-2.381-8.723-2.381a81.062,81.062,0,0,1,6.87,9.735,14.681,14.681,0,0,0,9.066,7.036q.358.089.733.167a8.539,8.539,0,0,1,5.816,4.4" transform="translate(-182.435 -3377.101)" fill="none" stroke="#222b39" stroke-linecap="round" stroke-linejoin="round" stroke-width="1"></path><path id="Path_641" data-name="Path 641" d="M187.7,3384.725l-1.685-7.708,4.951-15.2s2.841.712,2.107,5.049l-2.246,9.887,1.533,6.25" transform="translate(-184 -3359.315)" fill="none" stroke="#222b39" stroke-linecap="round" stroke-linejoin="round" stroke-width="1"></path><path id="Path_642" data-name="Path 642" d="M198,3361.472l1.329-4.1s3.677,1.351,2.436,6.249l-2.059,10.735,1.643,5.807" transform="translate(-189.245 -3357.368)" fill="none" stroke="#222b39" stroke-linecap="round" stroke-linejoin="round" stroke-width="1"></path><path id="Path_643" data-name="Path 643" d="M205.135,3364.643l.187.137a5.579,5.579,0,0,1,2.187,5.529l-1.191,6.358,1.7,5.914" transform="translate(-192.369 -3360.552)" fill="none" stroke="#222b39" stroke-linecap="round" stroke-linejoin="round" stroke-width="1"></path></g><path id="Path_644" data-name="Path 644" d="M232.358,3443.952l-11.578,3.563-3.116-7.778,16.38-5.9v3.943" transform="translate(-197.852 -3390.834)" fill="none" stroke="#222b39" stroke-linecap="round" stroke-linejoin="round" stroke-width="1"></path><line id="Line_82" data-name="Line 82" y1="5.315" x2="15.034" transform="translate(21.159 46.951)" fill="none" stroke="#222b39" stroke-linecap="round" stroke-linejoin="round" stroke-width="1"></line></g></g><g id="Group_848" data-name="Group 848" transform="translate(42.666 0)"><g id="Group_847" data-name="Group 847"><path id="Path_645" data-name="Path 645" d="M258.3,3408.376l1.364-4.822a15.513,15.513,0,0,1,8.4-9.848l3.385-1.57a7.567,7.567,0,0,0,4.1-4.8l1.638-5.778-.129-.972a4.979,4.979,0,0,1,2.314-4.888l.083-.052" transform="translate(-258.301 -3365.366)" fill="none" stroke="#222b39" stroke-linecap="round" stroke-linejoin="round" stroke-width="1"></path><path id="Path_646" data-name="Path 646" d="M285.633,3410.5q.363.049.713.08a11.619,11.619,0,0,0,10.1-4.516c4.951-6.341,8.722-2.381,8.722-2.381a81.017,81.017,0,0,0-6.869,9.735,14.687,14.687,0,0,1-9.067,7.036c-.238.06-.482.115-.733.167a8.537,8.537,0,0,0-5.815,4.4" transform="translate(-268.969 -3377.101)" fill="none" stroke="#222b39" stroke-linecap="round" stroke-linejoin="round" stroke-width="1"></path><path id="Path_647" data-name="Path 647" d="M311.81,3384.725l1.686-7.708-4.951-15.2s-2.841.712-2.108,5.049l2.246,9.887-1.533,6.25" transform="translate(-279.313 -3359.315)" fill="none" stroke="#222b39" stroke-linecap="round" stroke-linejoin="round" stroke-width="1"></path><path id="Path_648" data-name="Path 648" d="M303.968,3361.472l-1.33-4.1s-3.676,1.351-2.435,6.249l2.059,10.735-1.644,5.807" transform="translate(-276.526 -3357.368)" fill="none" stroke="#222b39" stroke-linecap="round" stroke-linejoin="round" stroke-width="1"></path><path id="Path_649" data-name="Path 649" d="M297.715,3364.643l-.187.137a5.581,5.581,0,0,0-2.187,5.529l1.191,6.358-1.7,5.914" transform="translate(-274.288 -3360.552)" fill="none" stroke="#222b39" stroke-linecap="round" stroke-linejoin="round" stroke-width="1"></path></g><path id="Path_650" data-name="Path 650" d="M259.989,3443.952l11.578,3.563,3.117-7.778-16.381-5.9v3.943" transform="translate(-258.302 -3390.834)" fill="none" stroke="#222b39" stroke-linecap="round" stroke-linejoin="round" stroke-width="1"></path><line id="Line_83" data-name="Line 83" x1="15.034" y1="5.315" transform="translate(0.001 46.951)" fill="none" stroke="#222b39" stroke-linecap="round" stroke-linejoin="round" stroke-width="1"></line></g></g><line id="Line_84" data-name="Line 84" y2="8.183" transform="translate(228.241 3366.728)" fill="none" stroke="#133b83" stroke-linecap="round" stroke-linejoin="round" stroke-width="1"></line><line id="Line_85" data-name="Line 85" y2="8.183" transform="translate(215.315 3366.728)" fill="none" stroke="#133b83" stroke-linecap="round" stroke-linejoin="round" stroke-width="1"></line><circle id="Ellipse_26" data-name="Ellipse 26" cx="6" cy="6" r="6" transform="translate(214.647 3348.247) rotate(-76.718)" fill="none" stroke="#133b83" stroke-linecap="round" stroke-linejoin="round" stroke-width="1"></circle><path id="Path_651" data-name="Path 651" d="M232.239,3385.75v-15.158a3.9,3.9,0,0,1,3.9-3.9h15.037a3.9,3.9,0,0,1,3.9,3.9v13.693" transform="translate(-21.795 -13.182)" fill="none" stroke="#133b83" stroke-linecap="round" stroke-linejoin="round" stroke-width="1"></path></g></svg>